<?xml version="1.0" encoding="UTF-8"?>
<!DOCTYPE svg PUBLIC "-//W3C//DTD SVG 1.1//EN" "http://www.w3.org/Graphics/SVG/1.1/DTD/svg11.dtd">
<svg version="1.1" xmlns="http://www.w3.org/2000/svg" xmlns:xlink="http://www.w3.org/1999/xlink" x="0" y="0" width="830" height="690" viewBox="0, 0, 830, 690">
  <g id="Layer_1">
    <path d="M139.185,552.208 C160.673,539.832 150.685,549.032 168.181,550.012 C180.189,550.719 171.568,544.157 185.017,542.036 C187.158,552.997 185.845,557.465 171.744,558.918 C165.208,559.559 163.154,548.836 139.185,552.208" fill="#614636"/>
    <path d="M814.93,551.051 C790.35,557.743 806.88,564.114 788.41,557.458 C775.72,552.887 785.01,548.278 770.42,546.278 C769.67,533.59 779.65,534.59 794.87,537.485 C811.71,540.704 798.73,548.571 814.93,551.051" fill="#614636"/>
    <path d="M3.271,387.305 C0.798,373.544 31.58,384.715 37.06,403.637 C27.166,401.602 12.056,409.368 4.123,406.008 C0.783,404.563 5.205,398.114 3.271,387.305" fill="#614636"/>
    <path d="M731.62,341.965 C743.79,341.645 770.66,341.422 776.16,360.332 C766.25,358.305 751.12,366.09 743.19,362.692 C739.83,361.27 720.66,342.313 731.62,341.965" fill="#614636"/>
    <path d="M826.87,684.204 C828.28,672.938 823.05,609.34 823.3,587.973 C823.47,574.633 824.48,565.93 824.32,550.297 C824.29,546.204 821.49,529.524 821.28,524.832 C820.45,507.18 821.66,489.364 821.28,472.895 C820.83,454.325 822.65,443.262 822.14,426.059 C821.62,409.18 819.72,390.965 819.23,376.204 C818.13,343.114 819.23,289.825 819.23,279.469 C789.9,257.473 30.431,290.606 8.439,290.606 C5.619,303.77 3.314,317.895 3.544,351.758 C3.599,358.645 6.462,381.071 6.603,388.422 C6.673,392.598 6.373,400.528 6.603,405.723 C7.115,417.563 8.353,428.118 8.63,439.297 C8.935,451.129 8.201,457.887 8.63,468.829 C9.31,485.692 11.935,491.317 12.716,507.528 C12.99,513.387 9.712,521.188 9.658,526.872 C9.501,540.165 12.099,550.84 12.716,562.516 C13.341,574.551 9.162,598.282 9.65,607.829 C10.708,628.391 10.916,649.032 11.955,669.438 C46.486,670.145 81.603,671.415 116.537,672.598 C162.353,674.149 208.189,675.254 254.021,676.25 C308.208,677.43 362.408,678.407 416.599,679.278 C470.916,680.153 525.236,680.926 579.552,681.622 C625.76,682.215 671.97,682.754 718.17,683.239 C748.03,683.555 777.88,683.852 807.74,684.082 C808.81,684.09 826.82,684.575 826.87,684.204" fill="#7F5A46"/>
    <path d="M826.87,684.204 C828.28,672.938 823.05,609.34 823.3,587.973 C823.47,574.633 824.48,565.93 824.32,550.297 C824.29,546.204 821.49,529.524 821.28,524.832 C820.45,507.18 821.66,489.364 821.28,472.895 C820.83,454.325 822.65,443.262 822.14,426.059 C821.62,409.18 819.72,390.965 819.23,376.204 C818.13,343.157 819.23,289.989 819.23,279.516 C819.23,271.372 798.58,281.489 796.08,284.161 C789.81,290.852 788.78,302.372 787.91,310.973 C785.98,329.883 789.06,348.758 790.25,367.575 C793.58,420.258 791.33,473.153 793.6,525.961 C795.09,560.516 795.99,595.075 796.84,629.649 C797.07,639.176 792.4,673.344 798.09,680.301 C800.8,683.633 826.62,686.223 826.87,684.204" fill="#74523E"/>
    <path d="M825.34,682.676 C825.34,660.278 823.05,609.34 823.3,587.973 C823.47,574.633 824.48,565.93 824.32,550.297 C824.29,546.204 821.49,529.524 821.28,524.832 C820.45,507.18 821.66,489.364 821.28,472.895 C820.83,454.325 822.65,443.262 822.14,426.059 C821.62,409.18 819.72,390.965 819.23,376.204 C818.13,343.114 819.23,305.942 819.23,283.536 C789.9,261.543 30.431,290.606 8.439,290.606 C5.619,303.77 4.837,314.332 5.068,348.208 C5.115,355.09 6.462,381.071 6.603,388.422 C6.673,392.598 6.373,400.528 6.603,405.723 C7.115,417.563 8.353,428.118 8.63,439.297 C8.935,451.129 8.201,457.887 8.63,468.829 C9.31,485.692 8.876,486.243 9.65,502.434 C9.923,508.301 9.712,521.188 9.658,526.872 C9.501,540.165 12.099,550.84 12.716,562.516 C13.341,574.551 10.181,585.567 10.669,595.114 C11.798,616.961 11.126,648.75 12.705,670.461 C176.259,680.106 342.982,674.317 507.298,678.051 C526.951,678.493 811.09,678.61 825.34,682.676 z" fill-opacity="0" stroke="#694939" stroke-width="6.661" stroke-linecap="round" stroke-linejoin="round"/>
    <path d="M242.08,321.825 C222.353,327.204 239.498,336.661 182.584,320.247 C169.834,316.61 170.294,310.504 155.681,308.504 C168.9,303.336 182.697,310.196 197.88,313.086 C214.705,316.336 225.884,319.309 242.08,321.825" fill="#614636"/>
    <path d="M596.947,434.122 C572.373,440.813 557.759,440.305 539.263,433.626 C526.576,429.051 528.248,425.379 513.662,423.379 C526.88,418.231 532.865,417.372 548.064,420.36 C564.857,423.536 580.716,431.641 596.947,434.122" fill="#614636"/>
    <path d="M785.35,418.836 C774.49,422.231 766.22,425.969 755.63,421.598 C746.81,417.977 739.8,412.735 730.1,411.442 C734.1,411.977 740.83,406.09 744.99,405.133 C751.53,403.649 755.4,404.61 761.64,406.747 C769.41,409.407 780.55,411.356 785.35,418.836" fill="#614636"/>
    <path d="M790.61,579.665 C766.03,586.403 763.95,590.946 745.44,584.145 C736.49,580.848 740.85,576.461 706.27,571.805 C719.49,566.575 728.36,569.512 743.58,572.422 C760.38,575.641 774.41,577.176 790.61,579.665" fill="#614636"/>
    <path d="M141.361,336.704 C116.775,343.434 133.326,349.821 114.837,343.114 C102.169,338.524 100.107,336.391 85.482,334.399 C98.693,329.188 100.427,321.477 115.63,324.36 C132.427,327.59 125.15,334.2 141.361,336.704" fill="#614636"/>
    <path d="M328.716,415.856 C304.154,422.52 320.705,428.934 302.197,422.231 C289.529,417.684 287.474,415.571 272.869,413.586 C286.076,408.368 287.783,400.629 302.986,403.532 C319.802,406.743 312.505,413.387 328.716,415.856" fill="#614636"/>
    <path d="M59.873,354.79 C35.314,361.461 51.865,367.879 33.361,361.176 C20.685,356.626 20.693,355.797 6.087,353.797 C8.154,332.18 18.939,339.532 34.15,342.442 C50.958,345.657 43.669,352.321 59.873,354.79" fill="#614636"/>
    <path d="M61.779,418.731 C34.15,426.27 48.552,418.692 35.287,425.114 C9.173,437.856 8.509,427.262 5.931,416.446 C19.142,411.254 10.005,414.387 25.208,417.301 C42.025,420.536 45.607,416.266 61.779,418.731" fill="#614636"/>
    <path d="M350.794,350.528 C326.212,357.231 342.763,363.602 324.263,356.918 C311.587,352.356 315.212,348.989 300.626,346.985 C299.837,334.282 310.228,341.598 325.431,344.508 C342.255,347.747 334.572,348.032 350.794,350.528" fill="#614636"/>
    <path d="M558.302,325.321 C533.736,331.997 550.252,338.403 531.791,331.704 C519.076,327.129 522.72,323.77 508.087,321.762 C507.334,309.082 517.744,316.379 532.955,319.29 C549.744,322.532 542.099,322.805 558.302,325.321" fill="#614636"/>
    <path d="M617.37,579.801 C592.779,586.485 609.314,592.891 590.834,586.18 C578.173,581.629 587.447,577.028 572.841,575.008 C572.06,562.325 582.084,563.313 597.287,566.235 C614.12,569.438 601.123,577.278 617.37,579.801" fill="#614636"/>
    <path d="M91.834,584.52 C67.251,591.239 83.802,597.629 65.306,590.946 C52.619,586.336 61.935,581.747 47.334,579.774 C46.572,567.079 56.568,568.071 71.767,570.969 C88.576,574.204 75.623,582.032 91.834,584.52" fill="#614636"/>
    <path d="M647.23,307.477 C622.54,315.618 639.16,320.997 620.62,315.399 C607.861,311.579 617.22,306.493 602.556,305.356 C601.794,292.715 611.845,293.122 627.12,295.168 C644.02,297.407 630.98,305.961 647.23,307.477" fill="#614636"/>
    <path d="M744.47,458.934 C719.91,465.653 736.46,472.059 717.97,465.332 C705.31,460.786 708.92,457.418 694.31,455.418 C693.54,442.731 703.95,450.047 719.12,452.985 C735.95,456.188 728.3,456.454 744.47,458.934" fill="#614636"/>
    <path d="M784.01,307.918 C761.01,318.84 778.44,322.247 759.04,318.868 C745.77,316.622 748.75,312.665 734.01,313.258 C731.02,300.903 742.55,306.282 758.01,306.512 C775.14,306.715 767.64,308.321 784.01,307.918" fill="#614636"/>
    <path d="M512.31,590.836 C487.736,597.528 504.298,603.954 485.818,597.223 C473.123,592.672 476.759,589.294 462.154,587.301 C461.4,574.633 471.783,581.93 486.974,584.821 C503.818,588.09 496.107,588.329 512.31,590.836" fill="#614636"/>
    <path d="M183.9,465.579 C159.334,472.278 175.884,478.696 157.404,471.969 C144.708,467.422 148.353,464.047 133.74,462.055 C132.986,449.376 143.369,456.684 158.564,459.567 C175.408,462.832 167.697,463.071 183.9,465.579" fill="#614636"/>
    <path d="M436.084,619.676 C413.74,625.754 428.783,631.575 411.978,625.489 C400.439,621.313 403.744,618.266 390.451,616.458 C389.771,604.926 399.216,611.59 413.041,614.215 C428.326,617.153 421.302,617.403 436.084,619.676" fill="#614636"/>
    <path d="M795.37,377.582 C770.81,384.266 787.34,390.653 768.9,383.961 C756.17,379.391 759.83,376.02 745.19,374.028 C744.43,361.332 754.8,368.633 770.06,371.551 C786.85,374.79 779.18,375.075 795.37,377.582" fill="#614636"/>
    <path d="M211.427,414.547 C186.845,421.231 203.388,427.594 184.916,420.934 C172.232,416.376 175.865,413 161.271,411.036 C160.47,398.348 162.462,393.876 177.673,396.801 C184.724,398.165 185.439,410.536 211.427,414.547" fill="#614636"/>
    <path d="M601.197,378.235 C576.634,384.918 590.861,384.676 572.365,377.997 C559.669,373.407 571.337,375.469 556.705,373.489 C555.951,360.794 560.412,365.098 575.587,368.036 C582.646,369.368 575.236,374.25 601.197,378.235" fill="#614636"/>
    <path d="M255.287,377.344 C230.716,384.063 244.916,383.786 226.427,377.086 C213.752,372.489 225.392,374.579 210.794,372.606 C210.033,359.93 214.466,364.161 229.677,367.09 C236.708,368.422 229.31,373.34 255.287,377.344" fill="#614636"/>
    <path d="M27.771,292.696 C39.923,292.376 57.146,286.805 62.607,305.723 C52.712,303.731 47.306,316.805 39.326,313.407 C36.005,312.012 16.791,292.973 27.771,292.696" fill="#ECD8AB"/>
    <path d="M397.896,305.907 C410.056,305.559 436.919,305.321 442.388,324.258 C432.513,322.254 417.4,330.004 409.47,326.626 C406.103,325.219 386.908,306.2 397.896,305.907" fill="#614636"/>
    <path d="M490.068,342.196 C502.177,341.817 529.091,341.606 534.552,360.544 C524.65,358.544 509.556,366.301 501.607,362.942 C498.294,361.489 479.06,342.477 490.068,342.196" fill="#614636"/>
    <path d="M405.376,403.29 C417.541,402.938 444.4,402.668 449.896,421.618 C439.994,419.594 424.884,427.317 416.962,423.977 C413.611,422.563 394.388,403.567 405.376,403.29" fill="#614636"/>
    <path d="M111.205,409.582 C123.357,409.262 136.658,393.332 142.095,412.254 C132.224,410.262 132.732,426.325 124.81,423.004 C121.466,421.547 100.197,409.879 111.205,409.582" fill="#614636"/>
    <path d="M1.505,280.481 C16.111,293.872 526.486,287.188 733.17,283.922 C776.46,282.528 795.81,277.422 818.77,282.481 C789.7,196.465 540.712,43.715 515.13,56.129 C489.287,68.676 19.958,265.223 1.505,280.481 z" fill-opacity="0" stroke="#755143" stroke-width="6.286" stroke-linecap="round" stroke-linejoin="round"/>
    <path d="M354.97,487.04 C351.869,491.262 351.712,497.137 348.611,501.434 C345.376,505.895 340.091,501.141 338.154,508.844 C335.998,517.442 340.806,519.454 347.47,519.602 C365.931,520.059 376.974,486.883 381.162,474.29 C371.869,475.446 360.783,479.129 354.97,487.04" fill="#614636"/>
    <path d="M39.529,573.762 C38.068,574.075 36.658,574.395 35.251,574.723 C-16.557,587.165 43.267,544.844 39.529,573.762" fill="#614636"/>
    <path d="M57.935,527.055 C67.216,533.243 75.212,542.258 63.13,545.829 C49.111,549.95 43.787,528.469 32.544,529.899 C29.064,530.34 9.099,562.313 13.412,533.711 C15.505,519.868 33.314,519.876 44.396,520.766 C47.064,520.977 52.712,523.567 57.935,527.055" fill="#614636"/>
    <path d="M162.326,539.071 C173.9,531.747 179.126,515.04 193.951,512.544 C204.103,510.825 215.845,516.829 215.201,527.715 C199.099,518.262 168.935,544.954 154.275,549.5 C145.712,552.161 138.037,554.75 130.951,547.114 C127.619,543.504 127.322,525.676 125.451,524.805 C133.025,528.332 134.392,539.567 143.525,541.668 C151.642,543.532 157.525,542.11 162.326,539.071" fill="#614636"/>
    <path d="M288.701,582.649 C279.486,591.02 241.685,582.434 235.232,573.918 C233.88,572.137 307.025,565.969 288.701,582.649" fill="#614636"/>
    <path d="M439.919,463.504 C430.712,471.868 392.912,463.294 386.447,454.774 C385.107,452.993 458.252,446.825 439.919,463.504" fill="#614636"/>
    <path d="M303.978,536.821 C294.759,545.196 256.958,536.61 250.505,528.09 C249.158,526.313 322.298,520.141 303.978,536.821" fill="#614636"/>
    <path d="M334.49,573.211 C351.916,569.024 364.123,588.762 340.138,589.036 C326.349,589.192 315.986,577.661 334.49,573.211" fill="#614636"/>
    <path d="M683.04,646.399 C675.79,646.602 664.97,646.649 664.72,645.282 C663.79,640.434 662.78,635.708 662.3,630.813 C654.37,629.379 636.54,635.852 627.8,638.278 C634.19,647.723 695.7,671.497 689.25,646.133 C688.52,646.2 686.1,646.309 683.04,646.399" fill="#614636"/>
    <path d="M288.197,637.301 C298.185,645.215 312.783,641.04 324.63,643.536 C321.759,642.93 321.115,657.223 321.337,658.618 C347.626,651.383 316.802,604.129 288.197,637.301" fill="#614636"/>
    <path d="M443.189,512.387 C443.951,515.516 481.99,515.93 485.486,515.442 C486.673,506.582 482.376,497 482.853,487.93 C483.185,481.79 489.646,478.688 485.13,471.868 C469.892,448.899 466.642,491.575 463.951,495.43 C458.189,503.711 439.994,499.297 443.189,512.387" fill="#614636"/>
    <path d="M303.998,469.536 C312.443,470.582 321.576,478.907 315.662,487.61 C305.208,503.012 301.259,480.836 299.095,480.735 C291.529,480.395 278.752,484.157 277.119,474.95 C283.865,473.254 290.72,471.106 297.615,469.903 C299.939,469.481 302.123,469.305 303.998,469.536" fill="#614636"/>
    <path d="M620.19,322.946 C628.63,323.981 637.78,332.317 631.86,341.02 C621.4,356.422 617.46,334.235 615.29,334.145 C607.724,333.805 594.935,337.567 593.302,328.352 C600.048,326.661 606.916,324.516 613.81,323.301 C616.14,322.891 618.31,322.715 620.19,322.946" fill="#614636"/>
    <path d="M104.134,383.329 C106.607,391.469 102.693,403.204 92.349,401.325 C74.017,398.024 92.697,385.411 91.908,383.391 C89.154,376.332 80.517,366.18 88.283,360.958 C92.56,366.438 97.306,371.844 101.216,377.645 C102.529,379.61 103.584,381.52 104.134,383.329" fill="#614636"/>
    <path d="M88.697,501.004 C84.271,508.262 72.896,513.157 67.416,504.188 C57.677,488.317 79.525,493.852 80.505,491.915 C83.939,485.168 85.767,471.969 94.837,474.282 C93.587,481.122 92.724,488.25 90.99,495.036 C90.404,497.321 89.677,499.379 88.697,501.004" fill="#614636"/>
    <path d="M517.798,552.325 C483.173,559.075 525.849,510.145 517.798,544.688" fill="#614636"/>
    <path d="M823.3,515.665 C788.68,522.411 831.35,473.481 823.3,508.024" fill="#614636"/>
    <path d="M739.29,358.387 C704.67,365.118 747.34,316.188 739.29,350.75" fill="#614636"/>
    <path d="M798.87,549.27 C764.23,556.016 806.92,507.09 798.87,541.633" fill="#614636"/>
    <path d="M820.25,408.77 C785.62,415.493 828.3,366.602 820.25,401.145" fill="#614636"/>
    <path d="M248.962,503.446 C214.33,510.192 257.013,461.262 248.962,495.809" fill="#614636"/>
    <path d="M71.767,378.243 C37.142,384.981 79.818,336.051 71.767,370.606" fill="#614636"/>
    <path d="M72.466,455.418 C62.431,489.235 38.775,428.766 65.701,451.883" fill="#614636"/>
    <path d="M281.736,452.36 C271.693,486.176 248.044,425.711 274.97,448.825" fill="#614636"/>
    <path d="M368.107,369.071 C363.884,379.446 374.423,383.274 381.658,381.032 C381.83,374.086 378.462,365.317 372.689,366.024" fill="#614636"/>
    <path d="M202.9,596.051 C195.283,595.754 171.626,601.602 169.834,592.055 C168.322,583.977 178.49,578.461 184.888,578.114 C195.916,577.516 204.15,596.094 202.9,596.051" fill="#614636"/>
    <path d="M609.412,494.157 C605.33,505.95 593.111,513.192 590.861,524.676 C575.568,525.266 577.806,511.598 583.994,503.645 C587.326,499.379 609.982,492.512 609.412,494.157" fill="#614636"/>
    <path d="M817.94,326.754 C820.45,338.981 813.66,351.446 817.6,362.461 C804.74,370.79 799.69,357.911 800.94,347.903 C801.62,342.536 817.58,325.055 817.94,326.754" fill="#614636"/>
    <path d="M694.11,494.008 C694.03,495.211 694.01,496.641 694.04,498.36 C694.19,505.629 696.5,509.973 691,516.168 C682.71,525.512 665.51,525.329 654.23,524.602 C659.6,524.954 675.21,516.829 678.45,511.872 C686.7,499.266 668.89,487.829 680.47,477.981 C686.12,473.18 701.7,472.461 705.46,480.165 C697.69,487.618 694.63,486.36 694.11,494.008" fill="#614636"/>
    <path d="M623.06,552.059 C614.16,555.75 602.271,554.071 592.916,553.684 C585.326,521.5 623.25,551.977 623.06,552.059" fill="#614636"/>
    <path d="M38.013,475.684 C29.13,479.376 17.24,477.696 7.888,477.309 C0.294,445.126 38.216,475.602 38.013,475.684" fill="#614636"/>
    <path d="M427.435,546 C417.982,548.059 402.806,548.461 393.654,544.653 C396.244,537.915 405.779,533.114 413.38,533.903 C416.291,534.215 432.189,544.965 427.435,546" fill="#614636"/>
    <path d="M504.482,383.329 C493.466,398.754 467.146,381.024 462.787,387.211 C467.615,380.372 474.951,378.243 482.662,378.418 C490.244,378.59 498.193,380.989 504.482,383.329" fill="#614636"/>
    <path d="M185.396,644.461 C193.013,634.383 200.275,652.723 195.951,657.047 C189.626,663.372 180.162,651.383 185.396,644.461" fill="#614636"/>
    <path d="M505.388,655.352 C508.373,645.215 522.169,646.832 517.048,654.801 C514.541,658.692 502.728,664.43 505.388,655.352" fill="#614636"/>
    <path d="M519.142,517.876 C522.115,507.743 535.919,509.356 530.791,517.325 C528.291,521.215 516.47,526.954 519.142,517.876" fill="#614636"/>
    <path d="M264.044,351.418 C267.021,341.286 280.826,342.903 275.697,350.879 C273.197,354.77 261.376,360.5 264.044,351.418" fill="#614636"/>
    <path d="M319.033,330.032 C322.017,319.907 335.814,321.512 330.689,329.489 C328.193,333.383 316.369,339.118 319.033,330.032" fill="#614636"/>
    <path d="M621.49,664.512 C624.46,654.387 638.26,655.993 633.14,663.969 C630.64,667.852 618.82,673.598 621.49,664.512" fill="#614636"/>
    <path d="M57.834,633.961 C60.806,623.836 74.615,625.442 69.482,633.418 C66.986,637.301 55.162,643.051 57.834,633.961" fill="#614636"/>
    <path d="M111.294,507.18 C114.271,497.047 128.076,498.661 122.947,506.629 C120.447,510.524 108.626,516.258 111.294,507.18" fill="#614636"/>
    <path d="M538.998,508.715 C541.97,498.579 555.775,500.184 550.646,508.165 C548.15,512.055 536.326,517.794 538.998,508.715" fill="#614636"/>
    <path d="M687.17,366.696 C690.14,356.559 703.95,358.176 698.82,366.153 C696.32,370.047 684.5,375.774 687.17,366.696" fill="#614636"/>
    <path d="M445.822,345.305 C448.794,335.18 462.595,336.786 457.47,344.766 C454.974,348.657 443.15,354.395 445.822,345.305" fill="#614636"/>
    <path d="M291.853,667.696 C295.228,658.094 313.689,656.544 314.443,668.192 C312.259,668.368 291.33,671.176 291.33,671.055 C291.302,669.844 291.494,668.743 291.853,667.696" fill="#614636"/>
    <path d="M734.83,638.68 C738.21,629.067 756.67,627.516 757.42,639.165 C755.24,639.348 734.31,642.149 734.31,642.032 C734.28,640.829 734.47,639.715 734.83,638.68" fill="#614636"/>
    <path d="M624.85,493.567 C628.23,483.958 646.69,482.407 647.44,494.055 C645.26,494.239 624.33,497.036 624.33,496.918 C624.3,495.715 624.49,494.606 624.85,493.567" fill="#614636"/>
    <path d="M278.099,368.356 C281.478,358.754 299.939,357.196 300.693,368.844 C298.505,369.028 277.587,371.825 277.576,371.715 C277.56,370.504 277.744,369.395 278.099,368.356" fill="#614636"/>
    <path d="M39.814,328.645 C43.193,319.044 61.654,317.481 62.404,329.133 C60.22,329.317 39.291,332.114 39.291,331.997 C39.263,330.794 39.455,329.672 39.814,328.645" fill="#614636"/>
    <path d="M563.744,356.137 C567.123,346.536 585.584,344.977 586.337,356.626 C584.15,356.809 563.232,359.61 563.22,359.497 C563.193,358.286 563.388,357.176 563.744,356.137" fill="#614636"/>
    <path d="M620.27,369.891 C623.65,360.278 642.11,358.727 642.86,370.368 C640.67,370.559 619.74,373.352 619.74,373.239 C619.72,372.036 619.91,370.918 620.27,369.891" fill="#614636"/>
    <path d="M491.951,644.786 C495.33,635.184 513.787,633.629 514.541,645.282 C512.357,645.454 491.435,648.262 491.427,648.145 C491.408,646.934 491.591,645.832 491.951,644.786" fill="#614636"/>
    <path d="M760.49,656.876 C763.46,646.75 777.27,648.356 772.14,656.332 C769.64,660.215 757.82,665.961 760.49,656.876" fill="#614636"/>
    <path d="M325.146,481.211 C328.119,471.086 341.927,472.692 336.794,480.668 C334.298,484.551 322.474,490.301 325.146,481.211" fill="#614636"/>
    <path d="M393.884,528.571 C396.857,518.434 410.666,520.051 405.533,528.02 C403.037,531.911 391.212,537.649 393.884,528.571" fill="#614636"/>
    <path d="M117.408,649.235 C120.384,639.11 134.181,640.719 129.06,648.696 C126.56,652.579 114.74,658.325 117.408,649.235" fill="#614636"/>
    <path d="M814.6,645.493 C825.08,646.876 825.6,660.758 816.94,656.93 C812.69,655.047 805.22,644.25 814.6,645.493" fill="#614636"/>
    <path d="M372.494,638.551 C375.478,628.418 389.275,630.024 384.154,638 C381.658,641.891 369.834,647.629 372.494,638.551" fill="#614636"/>
    <path d="M453.376,655.938 C442.83,656.536 430.244,657.821 420.126,654.36 C410.865,651.2 436.009,643.426 435.818,643.473 C444.712,641.598 456.388,639.762 465.08,641.481 C462.197,647.153 456.947,650.567 453.376,655.938" fill="#614636"/>
    <path d="M170.173,642.61 C167.982,643.868 165.658,644.731 163.271,645.024 C161.775,645.208 144.537,636.469 144.244,640.266 C144.958,631.079 153.037,629.903 161.626,630.336 C170.798,630.794 180.556,633.063 182.474,629.297 C179.904,634.336 175.423,639.598 170.173,642.61" fill="#614636"/>
    <path d="M653.9,602.512 C651.22,602.438 657.84,594.297 658.29,593.903 C660.94,591.653 665.54,591.633 669.33,591.559 C670.35,591.551 671.31,591.532 672.17,591.461 C678.59,590.918 700.85,593.379 691.62,603.11 C686.25,608.762 660.99,602.688 653.9,602.512" fill="#614636"/>
    <path d="M786.8,608.618 C784.11,608.544 790.74,600.411 791.19,600.016 C793.83,597.758 798.43,597.747 802.23,597.672 C803.25,597.665 804.21,597.637 805.06,597.563 C811.48,597.032 833.74,599.493 824.51,609.211 C819.14,614.868 793.87,608.801 786.8,608.618" fill="#614636"/>
    <path d="M652.22,428.602 C644.38,427.29 635.48,425.473 632.56,417.934 C628.26,406.805 669.22,423.536 670.8,424.36 C666.31,425.657 661.44,426.692 656.81,427.079" fill="#614636"/>
    <path d="M806.51,469.836 C798.66,468.524 789.75,466.715 786.83,459.172 C782.54,448.028 823.5,464.77 825.08,465.606 C820.59,466.891 815.71,467.93 811.09,468.313" fill="#614636"/>
    <path d="M433.787,369.071 C425.939,367.758 417.044,365.95 414.126,358.407 C409.818,347.25 450.779,364.004 452.357,364.832 C447.876,366.126 443.005,367.165 438.369,367.547" fill="#614636"/>
    <path d="M175.646,369.071 C167.798,367.758 158.892,365.95 155.974,358.407 C151.677,347.25 192.638,364.004 194.208,364.832 C189.728,366.126 184.853,367.165 180.228,367.547" fill="#614636"/>
    <path d="M168.009,509.559 C160.158,508.247 151.255,506.426 148.337,498.891 C144.041,487.739 185.002,504.481 186.568,505.317 C182.091,506.61 177.216,507.649 172.587,508.024" fill="#614636"/>
    <path d="M688.94,547.122 C691.39,549.305 692.12,552.528 689.1,556.254 C681.04,566.196 658.71,555.981 672.92,546.196 C677.67,542.926 685.26,543.852 688.94,547.122" fill="#614636"/>
    <path d="M774.12,469.993 C770.92,473.649 773.53,492.43 768.99,499.747 C763.02,509.364 753.08,514.387 743.34,519.575 C749.58,502.387 762.13,483.7 774.12,469.993" fill="#614636"/>
    <path d="M711.75,650.266 C719.83,650.86 738.26,654.469 739.22,652.157 C734.12,664.473 714.96,656.352 708.49,650.301 C709.08,650.145 710.24,650.145 711.75,650.266" fill="#614636"/>
    <path d="M203.091,470.02 C211.169,470.618 229.603,474.227 230.56,471.903 C225.462,484.231 206.298,476.106 199.814,470.059 C200.423,469.903 201.58,469.903 203.091,470.02" fill="#614636"/>
    <path d="M271.83,509.731 C279.908,510.329 298.341,513.938 299.294,511.626 C294.201,523.954 275.033,515.821 268.552,509.77 C269.158,509.614 270.314,509.614 271.83,509.731" fill="#614636"/>
    <path d="M255.244,645.602 C247.31,643.985 229.466,638.094 228.216,640.266 C234.837,628.672 252.83,639.157 258.482,645.969 C257.869,646.051 256.728,645.915 255.244,645.602" fill="#614636"/>
    <path d="M414.095,498.958 C406.166,497.348 388.322,491.458 387.08,493.622 C393.689,482.04 411.693,492.512 417.345,499.332 C416.732,499.415 415.595,499.266 414.095,498.958" fill="#614636"/>
    <path d="M59.716,502.012 C51.794,500.407 33.939,494.512 32.701,496.68 C39.31,485.094 57.31,495.567 62.966,502.387 C62.349,502.473 61.212,502.325 59.716,502.012" fill="#614636"/>
    <path d="M551.169,653.211 C547.513,645.997 541.052,628.344 538.584,628.711 C551.763,626.711 554.74,647.317 552.892,655.985 C552.455,655.551 551.857,654.559 551.169,653.211" fill="#614636"/>
    <path d="M601.814,655.993 C594.966,660.317 577.99,668.387 578.58,670.801 C575.365,657.856 595.615,653 604.419,654.028 C604.025,654.516 603.099,655.184 601.814,655.993" fill="#614636"/>
    <path d="M15.376,642.223 C15.001,628.774 40.529,652.016 42.63,647.317 C38.646,656.258 15.654,651.641 15.376,642.223" fill="#614636"/>
    <path d="M555.83,470.067 C553.619,477.688 537.482,487.399 529.724,484.332 C513.9,478.071 530.111,466.348 529.845,465.532 C533.158,475.329 547.084,469.34 555.83,470.067" fill="#614636"/>
    <path d="M241.169,437.993 C238.958,445.602 222.822,455.317 215.064,452.25 C199.236,445.997 215.447,434.266 215.181,433.458 C218.498,443.254 232.423,437.258 241.169,437.993" fill="#614636"/>
    <path d="M430.576,569.356 C428.361,576.973 412.224,586.688 404.466,583.622 C388.642,577.36 404.853,565.637 404.587,564.821 C407.912,574.614 421.837,568.629 430.576,569.356" fill="#614636"/>
    <path d="M106.24,597.84 C110.892,591.422 129.353,587.723 135.63,593.223 C148.408,604.45 129.189,610.032 129.189,610.883 C129.361,600.528 114.224,601.485 106.24,597.84" fill="#614636"/>
    <path d="M669.88,338.211 C674.54,331.794 693,328.094 699.28,333.602 C712.06,344.829 692.83,350.403 692.83,351.254 C693.02,340.899 677.87,341.844 669.88,338.211" fill="#614636"/>
    <path d="M3.544,284.555 C44.791,290.661 773.4,285.575 818.77,282.481 C789.7,196.465 559.548,56.45 515.13,56.129 C474.013,71.723 38.685,257.051 3.544,284.555 z" fill-opacity="0" stroke="#755143" stroke-width="6.286" stroke-linecap="round" stroke-linejoin="round"/>
    <path d="M807.01,271.317 L461.033,207.493 L59.267,258.981 L3.029,283.536 L4.564,312.563 C4.564,312.563 516.498,303.473 723,305.438 C722.9,305.458 764.24,310.02 772.38,305.329 C772.38,305.329 771.37,376.711 772.38,385.376 C755.07,386.395 721.58,390.727 629.82,390.977 C563.892,391.161 470.166,386.239 389.99,386.356 C302.205,386.497 214.173,386.559 144.068,386.43 C72.216,386.313 19.185,385.989 4.556,385.376 C5.068,406.231 6.619,449.422 5.849,459.126 C22.611,458.282 102.474,459.426 214.337,459.668 C316.939,459.887 456.048,465.77 561.084,465.77 C680.51,465.782 760.36,459.852 772.38,459.126 C771.88,474.942 771.37,527.891 772.38,538.079 C733.69,539.09 402.22,538.079 402.22,538.079 L221.974,539.09 C221.974,539.09 55.474,534.508 8.63,538.079 C8.126,551.317 11.716,597.59 9.923,611.876 C23.373,613.774 133.861,613.977 260.162,613.942 C344.837,613.915 432.412,613.985 518.314,613.629 C650.89,613.094 761.27,612.418 776.46,612.418 C776.46,630.739 776.46,679.622 776.46,679.622 L811.59,682.676 L802.94,287.614 L802.92,287.614 C804.97,278.653 807.01,271.317 807.01,271.317" fill="#C5A690"/>
    <path d="M807.01,271.317 L461.033,207.493 L59.267,258.981 L3.029,283.536 L4.564,312.563 C4.564,312.563 516.498,303.473 723,305.438 C722.9,305.458 764.24,310.02 772.38,305.329 C772.38,305.329 771.37,376.711 772.38,385.376 C755.07,386.395 721.58,390.727 629.82,390.977 C563.892,391.161 470.166,386.239 389.99,386.356 C302.205,386.497 214.173,386.559 144.068,386.43 C72.216,386.313 19.185,385.989 4.556,385.376 C5.068,406.231 6.619,449.422 5.849,459.126 C22.611,458.282 102.474,459.426 214.337,459.668 C316.939,459.887 456.048,465.77 561.084,465.77 C680.51,465.782 760.36,459.852 772.38,459.126 C771.88,474.942 771.37,527.891 772.38,538.079 C733.69,539.09 402.22,538.079 402.22,538.079 L221.974,539.09 C221.974,539.09 55.474,534.508 8.63,538.079 C8.126,551.317 11.716,597.59 9.923,611.876 C23.373,613.774 133.861,613.977 260.162,613.942 C344.837,613.915 432.412,613.985 518.314,613.629 C650.89,613.094 761.27,612.418 776.46,612.418 C776.46,630.739 776.46,679.622 776.46,679.622 L811.59,682.676 L802.94,287.614 L802.92,287.614 C804.97,278.653 807.01,271.317 807.01,271.317 z" fill-opacity="0" stroke="#B3927F" stroke-width="6.661" stroke-linecap="round" stroke-linejoin="round"/>
    <path d="M1.505,280.481 C16.111,293.872 526.486,287.188 733.17,283.922 C771.97,282.516 796.78,277.981 817.71,280.993 C788.63,194.981 540.712,43.715 515.13,56.129 C483.173,67.145 19.958,265.223 1.505,280.481" fill="#7F5A46"/>
    <path d="M1.505,280.481 C153.24,279.469 526.486,287.188 733.17,283.922 C771.97,282.516 797.85,279.469 818.77,282.481 C789.7,196.465 540.712,43.715 515.13,56.129 C483.173,67.145 44.779,261.137 1.505,280.481 z" fill-opacity="0" stroke="#694939" stroke-width="6.661" stroke-linecap="round" stroke-linejoin="round"/>
    <path d="M483.615,29.45 C511.072,18.52 546.708,16.188 567.49,30.829 C585.502,43.516 602.97,93.876 590.384,114.301 C577.466,135.231 484.056,124.719 467.88,111.094 C446.466,93.129 450.97,42.485 483.615,29.45" fill="#916F5C"/>
    <path d="M480.849,34.264 C509.208,29.314 549.584,26.735 569.865,37.011 C586.666,48.492 602.418,94.372 590.384,114.301 C577.276,136.91 484.657,125.54 467.766,110.995 C446.811,92.999 450.928,47.373 480.849,34.264" fill="#8E6C59"/>
    <path d="M478.082,39.078 C507.344,40.108 552.461,37.281 572.239,43.195 C587.829,53.468 601.865,94.867 590.384,114.301 C577.085,138.588 485.257,126.359 467.652,110.895 C447.156,92.869 450.887,52.261 478.082,39.078" fill="#8C6856"/>
    <path d="M475.317,43.892 C505.481,50.903 555.337,47.828 574.614,49.378 C588.993,58.445 601.312,95.363 590.384,114.301 C576.895,140.267 485.858,127.179 467.538,110.794 C447.5,92.739 450.845,57.149 475.317,43.892" fill="#896553"/>
    <path d="M472.55,48.707 C503.617,61.697 558.213,58.374 576.988,55.561 C590.156,63.42 600.758,95.858 590.384,114.301 C576.705,141.946 486.46,127.999 467.423,110.695 C447.845,92.609 450.803,62.038 472.55,48.707" fill="#866250"/>
    <path d="M469.785,53.521 C501.753,72.492 561.09,68.92 579.363,61.745 C591.32,68.397 600.206,96.354 590.384,114.301 C576.513,143.626 487.059,128.819 467.309,110.595 C448.189,92.478 450.762,66.925 469.785,53.521" fill="#845F4D"/>
    <path d="M467.018,58.335 C499.889,83.286 563.966,79.466 581.737,67.927 C592.483,73.373 599.653,96.849 590.384,114.301 C576.323,145.304 487.661,129.638 467.196,110.496 C448.534,92.348 450.72,71.813 467.018,58.335" fill="#815C4A"/>
    <path d="M464.252,63.149 C498.026,94.08 566.842,90.013 584.112,74.111 C593.647,78.349 599.099,97.345 590.384,114.301 C576.132,146.983 488.261,130.458 467.082,110.395 C448.878,92.218 450.678,76.701 464.252,63.149" fill="#7E5947"/>
    <path d="M461.486,67.963 C496.162,104.875 569.719,100.559 586.486,80.293 C594.81,83.325 598.546,97.84 590.384,114.301 C575.942,148.662 488.862,131.278 466.967,110.295 C449.223,92.087 450.637,81.589 461.486,67.963" fill="#7C5645"/>
    <path d="M458.72,72.778 C494.298,115.668 572.595,111.106 588.861,86.477 C595.974,88.301 597.994,98.336 590.384,114.301 C575.752,150.34 489.462,132.098 466.853,110.196 C449.568,91.958 450.595,86.477 458.72,72.778" fill="#795342"/>
    <path d="M576.716,110.801 C578.47,109.286 580.404,108.184 581.986,107.93 C586.986,107.083 590.998,110.04 589.576,114.942 C588.173,119.77 574.962,125.672 572.419,120.68 C570.916,117.75 573.502,113.583 576.716,110.801" fill="#916F5C"/>
    <path d="M576.376,91.204 C574.759,89.075 573.576,87.411 574.263,86.688 C575.275,85.586 585.318,86.395 586.693,87.227 C592.853,90.918 588.595,103.036 581.49,103.594 C582.892,99.594 579.037,94.747 576.376,91.204" fill="#916F5C"/>
    <path d="M557.384,76.102 C555.775,73.965 554.591,72.293 555.279,71.586 C556.31,70.477 566.314,71.274 567.728,72.129 C573.869,75.809 569.619,87.926 562.513,88.497 C563.927,84.493 560.052,79.645 557.384,76.102" fill="#916F5C"/>
    <path d="M558.466,51.602 C556.849,49.473 555.677,47.801 556.353,47.086 C557.384,45.985 567.388,46.793 568.802,47.637 C574.955,51.317 570.673,63.434 563.599,63.997 C564.982,59.993 561.146,55.145 558.466,51.602" fill="#916F5C"/>
    <path d="M540.806,82.016 C539.197,79.876 538.033,78.215 538.712,77.489 C539.74,76.387 549.744,77.184 551.158,78.04 C557.31,81.731 553.041,93.836 545.947,94.399 C547.341,90.403 543.486,85.547 540.806,82.016" fill="#916F5C"/>
    <path d="M531.009,106.489 C533.783,104.993 537.701,105.551 539.474,109.801 C542.091,115.969 533.294,121.293 529.22,115.051 C529.056,114.778 528.9,114.512 528.744,114.2 C527.044,110.766 528.568,107.817 531.009,106.489" fill="#916F5C"/>
    <path d="M551.544,112.848 C555.107,108.34 561.423,105.321 561.369,113.555 C561.357,118.274 552.849,123.762 547.818,122.579 C542.236,121.258 543.376,115.586 549.306,117.254 C549.587,115.852 550.443,114.27 551.544,112.848" fill="#916F5C"/>
    <path d="M569.462,95.876 C572.998,91.368 579.314,88.34 579.275,96.575 C579.267,101.309 570.74,106.79 565.728,105.598 C560.146,104.286 561.294,98.602 567.212,100.29 C567.49,98.868 568.334,97.309 569.462,95.876" fill="#916F5C"/>
    <path d="M584.15,66.961 C588.201,61.829 590.474,63.297 591.294,66.977 C592.58,72.75 591.466,85.309 582.259,83.446 C575.841,82.161 572.521,68.739 581.884,71.383 C582.169,69.969 583.002,68.403 584.15,66.961" fill="#916F5C"/>
    <path d="M585.802,56.376 C594.634,75.379 600.021,94.727 587.861,113.793 C574.685,134.403 541.283,136.274 517.599,132.989 C485.736,128.575 450.037,114.235 454.185,76.141 C456.599,53.641 477.189,27.661 501.416,22.622 C534.095,15.821 572.291,27.247 585.802,56.376 z" fill-opacity="0" stroke="#664637" stroke-width="6.661" stroke-linecap="round" stroke-linejoin="round"/>
    <path d="M512.587,28.094 C513.494,24.723 519.47,20.75 521.556,16.719 C523.794,12.422 525.638,8.504 525.794,3.719 C529.494,13.239 533.615,23.723 543.099,29.911" fill="#916F5C"/>
    <path d="M512.587,28.094 C513.494,24.723 519.47,20.75 521.556,16.719 C523.794,12.422 525.638,8.504 525.794,3.719 C529.494,13.239 533.615,23.723 543.099,29.911" fill-opacity="0" stroke="#664637" stroke-width="6.661" stroke-linecap="round" stroke-linejoin="round"/>
    <path d="M569.334,81.446 C598.38,69.852 636.08,67.391 658.09,82.887 C677.13,96.297 695.62,149.594 682.3,171.215 C668.63,193.364 569.794,182.231 552.666,167.836 C530.009,148.805 534.775,95.215 569.334,81.446" fill="#916F5C"/>
    <path d="M566.403,86.541 C596.406,81.274 639.13,78.552 660.6,89.429 C678.36,101.565 695.04,150.119 682.3,171.215 C668.43,195.139 570.432,183.098 552.544,167.728 C530.374,148.666 534.729,100.388 566.403,86.541" fill="#8E6C59"/>
    <path d="M563.473,91.635 C594.433,92.697 642.17,89.714 663.11,95.971 C679.59,106.833 694.45,150.643 682.3,171.215 C668.23,196.914 571.07,183.964 552.422,167.621 C530.74,148.528 534.683,105.56 563.473,91.635" fill="#8C6856"/>
    <path d="M560.544,96.73 C592.458,104.119 645.21,100.876 665.63,102.513 C680.82,112.1 693.87,151.168 682.3,171.215 C668.03,198.688 571.708,184.832 552.301,167.512 C531.105,148.39 534.637,110.732 560.544,96.73" fill="#896553"/>
    <path d="M557.613,101.824 C590.485,115.542 648.25,112.037 668.14,109.055 C682.06,117.367 693.29,151.691 682.3,171.215 C667.83,200.462 572.345,185.698 552.179,167.404 C531.469,148.251 534.59,115.905 557.613,101.824" fill="#866250"/>
    <path d="M554.683,106.918 C588.51,126.963 651.29,123.199 670.65,115.598 C683.29,122.634 692.7,152.216 682.3,171.215 C667.63,202.238 572.982,186.565 552.058,167.296 C531.834,148.113 534.544,121.077 554.683,106.918" fill="#845F4D"/>
    <path d="M551.752,112.013 C586.537,138.386 654.33,134.36 673.16,122.14 C684.52,127.902 692.12,152.74 682.3,171.215 C667.42,204.012 573.62,187.431 551.936,167.188 C532.2,147.974 534.499,126.25 551.752,112.013" fill="#815C4A"/>
    <path d="M548.823,117.108 C584.563,149.808 657.38,145.521 675.67,128.682 C685.75,133.169 691.53,153.264 682.3,171.215 C667.22,205.787 574.257,188.298 551.815,167.08 C532.564,147.836 534.453,131.421 548.823,117.108" fill="#7E5947"/>
    <path d="M545.892,122.203 C582.588,161.231 660.42,156.683 678.19,135.224 C686.98,138.436 690.95,153.789 682.3,171.215 C667.02,207.562 574.895,189.165 551.693,166.972 C532.929,147.698 534.407,136.594 545.892,122.203" fill="#7C5645"/>
    <path d="M542.962,127.297 C580.615,172.653 663.46,167.844 680.7,141.766 C688.22,143.704 690.37,154.313 682.3,171.215 C666.82,209.336 575.533,190.032 551.572,166.864 C533.294,147.559 534.361,141.766 542.962,127.297" fill="#795342"/>
    <path d="M667.84,167.512 C669.7,165.907 671.75,164.731 673.43,164.465 C678.72,163.575 682.95,166.715 681.46,171.891 C679.96,177.004 665.98,183.247 663.28,177.961 C661.72,174.868 664.43,170.45 667.84,167.512" fill="#916F5C"/>
    <path d="M667.47,146.766 C665.75,144.508 664.53,142.758 665.23,141.993 C666.32,140.821 676.92,141.684 678.41,142.555 C684.91,146.473 680.41,159.29 672.9,159.887 C674.38,155.645 670.31,150.524 667.47,146.766" fill="#916F5C"/>
    <path d="M651.7,131.485 C649.97,129.227 648.74,127.461 649.45,126.711 C650.54,125.543 661.15,126.399 662.63,127.297 C669.13,131.192 664.62,144.004 657.12,144.602 C658.6,140.372 654.52,135.247 651.7,131.485" fill="#916F5C"/>
    <path d="M648.52,104.864 C646.81,102.614 645.58,100.852 646.29,100.09 C647.38,98.922 657.97,99.766 659.47,100.657 C665.96,104.559 661.46,117.391 653.95,117.973 C655.43,113.739 651.35,108.618 648.52,104.864" fill="#916F5C"/>
    <path d="M629.86,137.047 C628.13,134.79 626.9,133.016 627.62,132.262 C628.71,131.098 639.3,131.954 640.8,132.844 C647.3,136.743 642.79,149.559 635.28,150.157 C636.76,145.915 632.67,140.782 629.86,137.047" fill="#916F5C"/>
    <path d="M619.47,162.942 C622.4,161.364 626.55,161.961 628.46,166.45 C631.21,172.985 621.89,178.602 617.59,172.004 C617.4,171.727 617.24,171.434 617.07,171.114 C615.26,167.477 616.88,164.356 619.47,162.942" fill="#916F5C"/>
    <path d="M641.21,169.68 C644.96,164.915 651.64,161.723 651.61,170.415 C651.58,175.426 642.56,181.239 637.26,179.969 C631.38,178.586 632.56,172.571 638.82,174.344 C639.13,172.848 640.03,171.196 641.21,169.68" fill="#916F5C"/>
    <path d="M660.15,151.715 C663.93,146.961 670.58,143.747 670.54,152.45 C670.53,157.461 661.5,163.262 656.21,162.016 C650.3,160.622 651.51,154.618 657.78,156.399 C658.09,154.891 658.98,153.239 660.15,151.715" fill="#916F5C"/>
    <path d="M670.46,118.797 C674.24,114.024 680.9,110.821 680.86,119.532 C680.85,124.536 671.82,130.344 666.51,129.086 C660.61,127.692 661.83,121.688 668.08,123.461 C668.39,121.965 669.29,120.313 670.46,118.797" fill="#916F5C"/>
    <path d="M677.46,109.911 C686.8,130.024 692.51,150.512 679.62,170.672 C665.69,192.481 630.34,194.473 605.275,191.004 C571.548,186.325 533.791,171.149 538.169,130.84 C540.74,107.028 562.513,79.536 588.162,74.192 C622.74,66.997 663.15,79.086 677.46,109.911 z" fill-opacity="0" stroke="#664637" stroke-width="6.661" stroke-linecap="round" stroke-linejoin="round"/>
    <path d="M599.994,79.985 C600.931,76.415 607.248,72.219 609.478,67.961 C611.837,63.407 613.791,59.258 613.947,54.2 C617.87,64.27 622.22,75.36 632.26,81.915" fill="#916F5C"/>
    <path d="M599.994,79.985 C600.931,76.415 607.248,72.219 609.478,67.961 C611.837,63.407 613.791,59.258 613.947,54.2 C617.87,64.27 622.22,75.36 632.26,81.915" fill-opacity="0" stroke="#664637" stroke-width="6.661" stroke-linecap="round" stroke-linejoin="round"/>
    <path d="M533.084,222.989 L463.447,226.915 L378.681,173.813 L424.533,158.731 L533.084,222.989" fill="#614335"/>
    <path d="M525.4,222.958 L469.374,226.763 L385.523,171.908 L422.511,160.292 L525.4,222.958" fill="#6C4D3F"/>
    <path d="M517.716,222.928 L475.302,226.612 L392.365,170.002 L420.49,161.852 L517.716,222.928" fill="#765849"/>
    <path d="M510.033,222.898 L481.23,226.46 L399.207,168.097 L418.468,163.413 L510.033,222.898" fill="#816454"/>
    <path d="M502.349,222.868 L487.158,226.309 L406.048,166.192 L416.447,164.973 L502.349,222.868" fill="#8B7060"/>
    <path d="M421.513,157.977 L533.002,225.512 L466.146,229.165 L378.681,173.813 L421.513,157.977 z" fill-opacity="0" stroke="#5E4133" stroke-width="6.661" stroke-linecap="round" stroke-linejoin="round"/>
    <path d="M371.494,224.208 L314.212,228.227 L238.736,176.567 L275.255,161.704 L371.494,224.208" fill="#614335"/>
    <path d="M365.132,224.199 L319.105,228.062 L244.106,175 L273.364,163.689 L365.132,224.199" fill="#6C4D3F"/>
    <path d="M358.771,224.19 L323.998,227.897 L249.476,173.432 L271.472,165.674 L358.771,224.19" fill="#765849"/>
    <path d="M352.41,224.181 L328.89,227.732 L254.846,171.865 L269.581,167.66 L352.41,224.181" fill="#816454"/>
    <path d="M346.048,224.172 L333.783,227.567 L260.216,170.297 L267.689,169.645 L346.048,224.172" fill="#8B7060"/>
    <path d="M272.666,160.961 L371.65,226.668 L316.673,230.43 L238.736,176.567 L272.666,160.961 z" fill-opacity="0" stroke="#5E4133" stroke-width="6.661" stroke-linecap="round" stroke-linejoin="round"/>
    <path d="M436.806,142.067 L401.97,92.645 L445.611,88.852 L461.08,134.735 L479.228,164.825 L460.841,187.114 L436.806,142.067" fill="#614335"/>
    <path d="M440.666,143.8 L407.668,93.441 L442.527,90.739 L458.397,135.07 L476.779,165.377 L461.782,184.844 L440.666,143.8" fill="#6C4D3F"/>
    <path d="M444.527,145.534 L413.367,94.237 L439.443,92.626 L455.714,135.405 L474.33,165.93 L462.722,182.575 L444.527,145.534" fill="#765849"/>
    <path d="M448.387,147.267 L419.065,95.033 L436.359,94.512 L453.032,135.74 L471.88,166.483 L463.663,180.305 L448.387,147.267" fill="#816454"/>
    <path d="M452.248,149 L424.763,95.829 L433.275,96.399 L450.349,136.075 L469.431,167.036 L464.603,178.036 L452.248,149" fill="#8B7060"/>
    <path d="M460.841,187.114 L479.228,164.825 L460.041,130.594 L445.611,88.852 L401.97,92.645 L435.009,138.489 L460.841,187.114 z" fill-opacity="0" stroke="#5E4133" stroke-width="6.661" stroke-linecap="round" stroke-linejoin="round"/>
    <path d="M637.46,214.348 L575.97,221.856 L493.216,178.879 L532.029,162.676 L637.46,214.348" fill="#614335"/>
    <path d="M630.62,214.761 L581.228,221.381 L499.052,176.777 L530.436,164.198 L630.62,214.761" fill="#6C4D3F"/>
    <path d="M623.77,215.174 L586.486,220.907 L504.888,174.674 L528.843,165.719 L623.77,215.174" fill="#765849"/>
    <path d="M616.93,215.587 L591.744,220.432 L510.724,172.572 L527.25,167.241 L616.93,215.587" fill="#816454"/>
    <path d="M610.076,216 L597.002,219.958 L516.56,170.469 L525.658,168.762 L610.076,216" fill="#8B7060"/>
    <path d="M529.228,162.172 L637.72,216.618 L578.681,223.731 L493.216,178.879 L529.228,162.172 z" fill-opacity="0" stroke="#5E4133" stroke-width="6.661" stroke-linecap="round" stroke-linejoin="round"/>
    <path d="M179.482,256.411 L121.943,264.551 L143.58,217.286 L190.662,220.84 L241.658,209.711 L234.064,262.7 L179.482,256.411" fill="#614335"/>
    <path d="M180.404,255.006 L122.223,263.084 L142.885,218.806 L189.987,222.262 L241.795,211.842 L234.185,261.153 L180.404,255.006" fill="#664739"/>
    <path d="M181.327,253.602 L122.504,261.617 L142.191,220.328 L189.312,223.684 L241.933,213.973 L234.305,259.605 L181.327,253.602" fill="#6A4C3D"/>
    <path d="M182.249,252.198 L122.786,260.149 L141.497,221.848 L188.637,225.106 L242.071,216.105 L234.426,258.058 L182.249,252.198" fill="#6F5142"/>
    <path d="M183.171,250.792 L123.066,258.681 L140.802,223.369 L187.962,226.528 L242.208,218.236 L234.546,256.51 L183.171,250.792" fill="#745546"/>
    <path d="M184.093,249.388 L123.347,257.214 L140.108,224.89 L187.287,227.95 L242.346,220.367 L234.668,254.963 L184.093,249.388" fill="#795A4B"/>
    <path d="M185.016,247.984 L123.627,255.747 L139.413,226.411 L186.612,229.372 L242.483,222.498 L234.788,253.416 L185.016,247.984" fill="#7E5F50"/>
    <path d="M185.938,246.579 L123.909,254.279 L138.718,227.931 L185.937,230.793 L242.621,224.629 L234.909,251.869 L185.938,246.579" fill="#826555"/>
    <path d="M186.861,245.174 L124.189,252.812 L138.024,229.453 L185.262,232.215 L242.758,226.76 L235.029,250.321 L186.861,245.174" fill="#876A5B"/>
    <path d="M187.783,243.77 L124.47,251.344 L137.33,230.973 L184.587,233.637 L242.896,228.891 L235.15,248.774 L187.783,243.77" fill="#8B7060"/>
    <path d="M241.658,209.711 L242.896,228.891 L234.064,262.7 L179.482,256.411 L124.232,264.028 L124.47,251.344 L143.58,217.286 L190.662,220.84 L241.658,209.711 z" fill-opacity="0" stroke="#614335" stroke-width="6.661" stroke-linecap="round" stroke-linejoin="round"/>
    <path d="M482.322,232.184 C482.322,232.184 454.458,275.008 452.072,280.157 C432.88,252.684 354.337,266.793 354.337,266.793 L364.83,211.942 L482.322,232.184" fill="#614335"/>
    <path d="M478.943,236.719 C478.943,236.719 456.357,270.464 453.472,275.458 C434.713,250.52 354.314,260.375 354.314,260.375 L364.63,214.279 L478.943,236.719" fill="#6C4D3F"/>
    <path d="M475.564,241.254 C475.564,241.254 458.255,265.92 454.873,270.758 C436.546,248.356 354.291,253.956 354.291,253.956 L364.431,216.616 L475.564,241.254" fill="#765849"/>
    <path d="M472.185,245.79 C472.185,245.79 460.154,261.376 456.273,266.059 C438.379,246.192 354.267,247.537 354.267,247.537 L364.232,218.953 L472.185,245.79" fill="#816454"/>
    <path d="M468.806,250.325 C468.806,250.325 462.052,256.833 457.673,261.36 C440.212,244.028 354.244,241.118 354.244,241.118 L364.033,221.29 L468.806,250.325" fill="#8B7060"/>
    <path d="M354.337,266.793 C354.236,259.348 354.244,241.118 354.244,241.118 L363.517,214.68 L481.064,235.032 C481.064,235.032 455.15,274.77 452.072,280.157 C441.423,269.317 389.322,255.243 354.337,266.793 z" fill-opacity="0" stroke="#5E4133" stroke-width="6.661" stroke-linecap="round" stroke-linejoin="round"/>
    <path d="M262.349,196.458 C262.349,196.458 308.22,197.653 321.74,192.52 C319.306,198.368 290.834,237.731 290.834,237.731 L248.607,224.778 L214.787,224.188 L214.107,192.465 L262.349,196.458" fill="#614335"/>
    <path d="M259.126,199.189 C259.126,199.189 307.433,201.882 317.573,198.033 C315.748,202.418 293.071,234.462 293.071,234.462 L251.54,222.485 L214.881,221.356 L214.963,194.941 L259.126,199.189" fill="#6C4D3F"/>
    <path d="M255.904,201.92 C255.904,201.92 306.646,206.112 313.406,203.545 C312.189,206.469 295.308,231.194 295.308,231.194 L254.472,220.192 L214.976,218.524 L215.82,197.416 L255.904,201.92" fill="#765849"/>
    <path d="M252.681,204.652 C252.681,204.652 305.859,210.341 309.239,209.058 C308.63,210.52 297.545,227.925 297.545,227.925 L257.405,217.899 L215.071,215.692 L216.676,199.892 L252.681,204.652" fill="#816454"/>
    <path d="M249.458,207.383 L305.072,214.571 L299.783,224.657 L260.337,215.606 L215.166,212.86 L217.533,202.368 L249.458,207.383" fill="#8B7060"/>
    <path d="M214.107,192.465 L214.787,224.188 L252.158,226.309 C252.158,226.309 281.654,227.723 290.834,237.731 C304.802,226.477 318.986,197.926 321.74,192.52 C304.814,198.512 266.084,196.899 266.084,196.899 L214.107,192.465 z" fill-opacity="0" stroke="#5E4133" stroke-width="6.661" stroke-linecap="round" stroke-linejoin="round"/>
    <path d="M406.084,137.844 L469.689,120.055 L444.373,176.051 L396.334,171.665 L359.599,178.704 L353.142,144.508 L406.084,137.844" fill="#614335"/>
    <path d="M403.359,142.281 L467.238,125.366 L446.263,170.708 L397.695,168.511 L359.737,174.649 L354.515,146.997 L403.359,142.281" fill="#6C4D3F"/>
    <path d="M400.634,146.717 L464.787,130.676 L448.154,165.366 L399.056,165.358 L359.874,170.594 L355.888,149.485 L400.634,146.717" fill="#765849"/>
    <path d="M397.91,151.154 L462.335,135.987 L450.044,160.023 L400.418,162.205 L360.012,166.54 L357.261,151.973 L397.91,151.154" fill="#816454"/>
    <path d="M395.185,155.59 L459.884,141.297 L451.935,154.68 L401.779,159.051 L360.15,162.485 L358.634,154.461 L395.185,155.59" fill="#8B7060"/>
    <path d="M353.142,144.508 L359.599,178.704 L400.439,172.481 L444.373,176.051 L469.689,120.055 L410.205,137.477 L353.142,144.508 z" fill-opacity="0" stroke="#5E4133" stroke-width="6.661" stroke-linecap="round" stroke-linejoin="round"/>
    <path d="M410.123,183.883 C410.123,183.883 373.724,232.352 372.873,239.309 C362.974,238.977 311.662,251.461 276.724,274.192 C279.337,266.407 290.298,230.641 290.298,230.641 L410.123,183.883" fill="#614335"/>
    <path d="M405.611,189.74 C405.611,189.74 376.843,229.478 376.205,234.696 C368.781,234.447 315.292,244.671 278.645,268.953 C280.797,261.771 290.912,231.906 290.912,231.906 L405.611,189.74" fill="#6C4D3F"/>
    <path d="M401.099,195.596 C401.099,195.596 379.962,226.604 379.537,230.083 C374.587,229.916 318.923,237.881 280.566,263.713 C282.257,257.135 291.525,233.17 291.525,233.17 L401.099,195.596" fill="#765849"/>
    <path d="M396.587,201.453 C396.587,201.453 383.082,223.73 382.869,225.469 C380.394,225.386 322.554,231.091 282.487,258.474 C283.717,252.5 292.138,234.435 292.138,234.435 L396.587,201.453" fill="#816454"/>
    <path d="M392.076,207.309 L386.201,220.856 C386.201,220.856 326.185,224.301 284.408,253.235 C285.177,247.864 292.752,235.7 292.752,235.7 L392.076,207.309" fill="#8B7060"/>
    <path d="M277.08,271.09 C279.955,264.692 290.298,230.641 290.298,230.641 L408.771,187.809 C408.771,187.809 375.513,233.645 372.873,239.309 C367.677,237.407 311.662,251.461 277.08,271.09 z" fill-opacity="0" stroke="#5E4133" stroke-width="6.661" stroke-linecap="round" stroke-linejoin="round"/>
    <path d="M373.072,171.551 L433.025,196.973 L384.841,220.754 L356.63,188.133 L303.693,167.954 L344.771,131.356 L373.072,171.551" fill="#614335"/>
    <path d="M371.22,172.78 L426.106,198.85 L387.912,218.632 L358.444,186.986 L306.642,164.048 L342.258,133.899 L371.22,172.78" fill="#6C4D3F"/>
    <path d="M369.369,174.008 L419.187,200.727 L390.982,216.51 L360.257,185.838 L309.591,160.143 L339.746,136.442 L369.369,174.008" fill="#765849"/>
    <path d="M367.517,175.237 L412.268,202.604 L394.052,214.388 L362.071,184.691 L312.541,156.238 L337.233,138.985 L367.517,175.237" fill="#816454"/>
    <path d="M365.666,176.465 L405.349,204.481 L397.123,212.266 L363.884,183.543 L315.49,152.333 L334.72,141.528 L365.666,176.465" fill="#8B7060"/>
    <path d="M303.693,167.954 L315.49,152.333 L344.771,131.356 L373.974,170.59 L430.916,196.043 L417.697,206.379 L384.841,220.754 L354.767,189.114 L303.693,167.954 z" fill-opacity="0" stroke="#614335" stroke-width="6.661" stroke-linecap="round" stroke-linejoin="round"/>
    <path d="M586.107,257.641 L528.841,246.844 L567.755,209.383 L605.119,232.754 L637.11,241.723 L631.07,273.567 L586.107,257.641" fill="#614335"/>
    <path d="M589.74,255.715 L534.322,243.274 L565.321,213.734 L602.727,234.451 L636.43,244.528 L630.78,270.884 L589.74,255.715" fill="#6C4D3F"/>
    <path d="M593.373,253.79 L539.802,239.704 L562.886,218.084 L600.335,236.147 L635.74,247.333 L630.49,268.202 L593.373,253.79" fill="#765849"/>
    <path d="M597.005,251.864 L545.283,236.133 L560.452,222.435 L597.944,237.843 L635.05,250.137 L630.21,265.519 L597.005,251.864" fill="#816454"/>
    <path d="M600.638,249.938 L550.763,232.563 L558.017,226.786 L595.552,239.54 L634.37,252.942 L629.92,262.836 L600.638,249.938" fill="#8B7060"/>
    <path d="M631.07,273.567 L637.11,241.723 L602.06,230.348 L567.755,209.383 L528.841,246.844 L582.619,256.262 L631.07,273.567 z" fill-opacity="0" stroke="#614335" stroke-width="6.661" stroke-linecap="round" stroke-linejoin="round"/>
    <path d="M481.392,137.395 L527.697,101.016 L532.56,152.122 L489.525,173.25 L450.419,208.805 L430.392,160.051 L481.392,137.395" fill="#614335"/>
    <path d="M481.163,141.133 L528.809,104.132 L532.207,148.426 L489.248,169.762 L447.74,204.897 L432.264,164.664 L481.163,141.133" fill="#6C4D3F"/>
    <path d="M480.933,144.872 L529.921,107.249 L531.853,144.731 L488.97,166.274 L445.06,200.989 L434.136,169.276 L480.933,144.872" fill="#765849"/>
    <path d="M480.704,148.61 L531.034,110.365 L531.5,141.036 L488.693,162.786 L442.38,197.081 L436.008,173.888 L480.704,148.61" fill="#816454"/>
    <path d="M480.474,152.348 L532.146,113.481 L531.146,137.34 L488.416,159.297 L439.701,193.172 L437.88,178.5 L480.474,152.348" fill="#8B7060"/>
    <path d="M450.419,208.805 L439.701,193.172 L430.392,160.051 L481.392,137.395 L525.962,102.633 L532.146,113.481 L532.56,152.122 L489.525,173.25 L450.419,208.805 z" fill-opacity="0" stroke="#5E4133" stroke-width="6.286" stroke-linecap="round" stroke-linejoin="round"/>
    <path d="M610.865,159.364 L580.716,219.086 L489.849,265.415 L498.017,220.36 L610.865,159.364" fill="#614335"/>
    <path d="M609.196,162.197 L581.932,216.863 L490.413,262.992 L498.355,220.888 L609.196,162.197" fill="#664739"/>
    <path d="M607.527,165.031 L583.149,214.639 L490.976,260.568 L498.693,221.418 L607.527,165.031" fill="#6A4C3D"/>
    <path d="M605.858,167.864 L584.365,212.416 L491.541,258.145 L499.031,221.946 L605.858,167.864" fill="#6F5142"/>
    <path d="M604.19,170.697 L585.582,210.193 L492.104,255.722 L499.368,222.474 L604.19,170.697" fill="#745546"/>
    <path d="M602.52,173.531 L586.797,207.969 L492.668,253.298 L499.706,223.003 L602.52,173.531" fill="#795A4B"/>
    <path d="M600.852,176.364 L588.013,205.746 L493.232,250.876 L500.044,223.532 L600.852,176.364" fill="#7E5F50"/>
    <path d="M599.183,179.197 L589.229,203.522 L493.795,248.453 L500.381,224.06 L599.183,179.197" fill="#826555"/>
    <path d="M597.514,182.031 L590.446,201.298 L494.36,246.029 L500.718,224.589 L597.514,182.031" fill="#876A5B"/>
    <path d="M595.845,184.864 L591.662,199.075 L494.923,243.606 L501.056,225.118 L595.845,184.864" fill="#8B7060"/>
    <path d="M489.837,262.266 L498.017,220.36 L610.009,163.418 L582.775,221.379 L489.837,262.266 z" fill-opacity="0" stroke="#5E4133" stroke-width="6.661" stroke-linecap="round" stroke-linejoin="round"/>
    <path d="M653.55,161.696 C684.14,149.504 723.84,146.907 746.99,163.219 C767.03,177.344 786.5,233.442 772.47,256.188 C758.1,279.516 654.05,267.793 636.01,252.629 C612.166,232.618 617.19,176.208 653.55,161.696" fill="#916F5C"/>
    <path d="M650.47,167.06 C682.06,161.529 727.04,158.655 749.63,170.106 C768.33,182.889 785.89,233.995 772.47,256.188 C757.89,281.384 654.72,268.708 635.88,252.517 C612.548,232.472 617.14,181.651 650.47,167.06" fill="#8E6C59"/>
    <path d="M647.39,172.423 C679.99,173.553 730.24,170.402 752.27,176.993 C769.63,188.434 785.27,234.547 772.47,256.188 C757.67,283.253 655.39,269.621 635.76,252.405 C612.931,232.326 617.09,187.094 647.39,172.423" fill="#8C6856"/>
    <path d="M644.31,177.787 C677.91,185.578 733.44,182.15 754.92,183.879 C770.92,193.979 784.66,235.101 772.47,256.188 C757.46,285.122 656.06,270.535 635.63,252.292 C613.314,232.18 617.04,192.539 644.31,177.787" fill="#896553"/>
    <path d="M641.22,183.151 C675.83,197.602 736.64,193.898 757.56,190.766 C772.22,199.523 784.04,235.654 772.47,256.188 C757.25,286.99 656.73,271.448 635.5,252.179 C613.697,232.034 616.99,197.982 641.22,183.151" fill="#866250"/>
    <path d="M638.14,188.514 C673.76,209.626 739.84,205.646 760.21,197.653 C773.52,205.068 783.43,236.207 772.47,256.188 C757.03,288.859 657.4,272.362 635.38,252.067 C614.08,231.888 616.94,203.425 638.14,188.514" fill="#845F4D"/>
    <path d="M635.06,193.878 C671.68,221.65 743.04,217.394 762.85,204.54 C774.82,210.613 782.81,236.759 772.47,256.188 C756.82,290.727 658.07,273.275 635.25,251.955 C614.47,231.743 616.89,208.869 635.06,193.878" fill="#815C4A"/>
    <path d="M631.98,199.242 C669.6,233.674 746.25,229.141 765.49,211.426 C776.11,216.157 782.2,237.313 772.47,256.188 C756.61,292.595 658.74,274.189 635.13,251.842 C614.85,231.597 616.84,214.313 631.98,199.242" fill="#7E5947"/>
    <path d="M628.9,204.606 C667.53,245.699 749.45,240.889 768.14,218.313 C777.41,221.702 781.58,237.866 772.47,256.188 C756.39,294.464 659.41,275.102 635,251.73 C615.23,231.451 616.79,219.756 628.9,204.606" fill="#7C5645"/>
    <path d="M625.81,209.969 C665.45,257.723 752.65,252.637 770.78,225.2 C778.71,227.247 780.97,238.418 772.47,256.188 C756.18,296.332 660.08,276.016 634.87,251.618 C615.62,231.305 616.74,225.2 625.81,209.969" fill="#795342"/>
    <path d="M757.26,252.305 C759.2,250.618 761.36,249.379 763.12,249.086 C768.71,248.157 773.17,251.461 771.57,256.907 C770.02,262.293 755.28,268.868 752.47,263.305 C750.8,260.043 753.66,255.399 757.26,252.305" fill="#916F5C"/>
    <path d="M711.38,261.614 C713.32,259.918 715.5,258.676 717.25,258.391 C722.83,257.465 727.28,260.762 725.71,266.223 C724.15,271.602 709.4,278.165 706.6,272.614 C704.93,269.352 707.79,264.719 711.38,261.614" fill="#916F5C"/>
    <path d="M756.87,230.469 C755.07,228.09 753.76,226.227 754.51,225.438 C755.65,224.208 766.82,225.098 768.37,226.051 C775.22,230.157 770.47,243.641 762.57,244.266 C764.15,239.813 759.84,234.415 756.87,230.469" fill="#916F5C"/>
    <path d="M682.76,250.243 C680.97,247.864 679.67,246.008 680.41,245.211 C681.56,243.981 692.71,244.872 694.28,245.817 C701.12,249.938 696.38,263.422 688.48,264.04 C690.04,259.586 685.74,254.188 682.76,250.243" fill="#916F5C"/>
    <path d="M743.96,221.024 C742.17,218.637 740.85,216.782 741.6,215.981 C742.75,214.762 753.92,215.661 755.49,216.59 C762.32,220.7 757.57,234.196 749.67,234.821 C751.24,230.368 746.95,224.961 743.96,221.024" fill="#916F5C"/>
    <path d="M736.92,186.36 C735.12,183.973 733.83,182.118 734.56,181.329 C735.72,180.09 746.87,180.989 748.44,181.934 C755.28,186.04 750.53,199.532 742.62,200.157 C744.2,195.704 739.9,190.297 736.92,186.36" fill="#916F5C"/>
    <path d="M717.26,220.223 C715.47,217.856 714.17,216 714.92,215.192 C716.07,213.973 727.22,214.872 728.78,215.809 C735.63,219.903 730.88,233.415 722.97,234.032 C724.54,229.567 720.24,224.172 717.26,220.223" fill="#916F5C"/>
    <path d="M706.34,247.497 C709.42,245.825 713.78,246.45 715.79,251.188 C718.69,258.055 708.89,263.985 704.35,257.036 C704.15,256.731 703.98,256.418 703.81,256.09 C701.91,252.262 703.61,248.973 706.34,247.497" fill="#916F5C"/>
    <path d="M729.23,254.594 C733.18,249.563 740.21,246.204 740.16,255.356 C740.13,260.633 730.66,266.747 725.05,265.415 C718.85,263.958 720.11,257.629 726.71,259.504 C727.03,257.926 727.97,256.172 729.23,254.594" fill="#916F5C"/>
    <path d="M749.16,235.684 C753.13,230.661 760.16,227.293 760.1,236.454 C760.08,241.723 750.59,247.836 745,246.516 C738.81,245.047 740.05,238.731 746.65,240.594 C746.97,239.024 747.92,237.27 749.16,235.684" fill="#916F5C"/>
    <path d="M760.03,201.028 C763.97,196 770.99,192.622 770.95,201.79 C770.92,207.071 761.44,213.172 755.86,211.852 C749.65,210.383 750.9,204.067 757.51,205.93 C757.83,204.36 758.77,202.61 760.03,201.028" fill="#916F5C"/>
    <path d="M767.37,191.676 C777.21,212.844 783.22,234.407 769.67,255.629 C754.99,278.579 717.78,280.692 691.41,277.028 C655.9,272.098 616.15,256.126 620.76,213.688 C623.47,188.626 646.39,159.692 673.38,154.075 C709.78,146.493 752.32,159.223 767.37,191.676 z" fill-opacity="0" stroke="#664637" stroke-width="6.661" stroke-linecap="round" stroke-linejoin="round"/>
    <path d="M685.83,160.18 C686.84,156.415 693.47,151.993 695.81,147.512 C698.3,142.711 700.36,138.36 700.54,133.028 C704.66,143.629 709.25,155.305 719.8,162.2" fill="#916F5C"/>
    <path d="M685.83,160.18 C686.84,156.415 693.47,151.993 695.81,147.512 C698.3,142.711 700.36,138.36 700.54,133.028 C704.66,143.629 709.25,155.305 719.8,162.2" fill-opacity="0" stroke="#664637" stroke-width="6.661" stroke-linecap="round" stroke-linejoin="round"/>
  </g>
</svg>
